<svg width="270.59999999999997" height="87.71620080404851" viewBox="0 0 350 113.45406608062449" class="css-1j8o68f"><defs id="SvgjsDefs1416"></defs><g id="SvgjsG1417" featurekey="nameFeature-0" transform="matrix(2.7450763567708876,0,0,2.7450763567708876,-2.3058619406441383,-30.744857290160994)" fill="#111111"><path d="M16.04 30 c-0.16 -2.92 -1.48 -4.64 -4.52 -4.64 c-0.84 0 -1.56 0.12 -2.16 0.36 c-1.84 0.84 -2.52 2.4 -2.52 4.32 c0 0.64 0.08 1.24 0.28 1.76 c0.6 2.08 2.4 2.84 4.4 2.84 c3.04 0 4.52 -1.64 4.52 -4.64 z M23.64 40 l-6 0 c-0.4 -1 -0.76 -2 -1 -3.04 c-1.36 2.24 -3.44 3.24 -6 3.24 c-5.72 0 -9.8 -4.8 -9.8 -10.28 c0 -6.32 4.72 -10.12 10.68 -10.12 c6.36 0 10.36 4.08 10.52 10.2 c0.04 0.52 0.04 1.12 0.04 1.84 c0 2.8 0.44 5.6 1.56 8.16 z M39.32299999999999 20 l6 0 l0 10 c0 6.12 -4.24 10.2 -10.2 10.2 c-6.12 0 -10.2 -4.28 -10.2 -10.2 l0 -10 l6 0 l0 10 c0 2.68 1.36 4.64 4.2 4.64 c2.92 0 4.2 -1.92 4.2 -4.64 l0 -10 z M57.205999999999996 34.24 l-4.2 5.76 l-6.6 0 l7.52 -10.28 l-7.12 -9.72 l6.6 0 l3.8 5.2 l3.8 -5.2 l6.6 0 l-7.08 9.72 l7.48 10.28 l-6.6 0 z M69.289 20 l6 0 l0 20 l-6 0 l0 -20 z M72.289 18.12 c-2.04 0 -3.48 -1.44 -3.48 -3.48 c0 -2.08 1.44 -3.44 3.48 -3.44 c2.08 0 3.44 1.36 3.44 3.44 c0 2.12 -1.32 3.48 -3.44 3.48 z M78.372 12 l6 0 l0 28 l-6 0 l0 -28 z M87.575 20 l6 0 l0 20 l-6 0 l0 -20 z M90.575 18.12 c-2.04 0 -3.48 -1.44 -3.48 -3.48 c0 -2.08 1.44 -3.44 3.48 -3.44 c2.08 0 3.44 1.36 3.44 3.44 c0 2.12 -1.32 3.48 -3.44 3.48 z M112.418 35.04 l-9 0 l-1.76 4.96 l-6.52 0 l9.8 -24.48 l6 0 l9.8 24.48 l-6.56 0 z M105.37800000000001 29.48 l5.08 0 l-2.52 -7.12 z M122.34100000000001 15.52 l6 0 l0 24.48 l-6 0 l0 -24.48 z"></path></g><g id="SvgjsG1418" featurekey="sloganFeature-0" transform="matrix(0.8836999155022828,0,0,0.8836999155022828,-0.7593630366936611,95.58158891248944)" fill="#111111"><path d="M6.4648 20.18555 c-2.9492 0 -5.1563 -1.4063 -5.6055 -3.8672 l2.4023 -0.55664 c0.25391 1.6016 1.5723 2.4805 3.291 2.4805 c1.3574 0 2.5879 -0.57617 2.5684 -2.041 c-0.019531 -1.5234 -1.709 -1.9629 -3.5352 -2.4805 c-2.1094 -0.61523 -4.2773 -1.3184 -4.2773 -3.877 c0 -2.5977 2.1289 -3.9648 4.7754 -3.9648 c2.4414 0 4.7559 1.0254 5.293 3.5254 l-2.2559 0.56641 c-0.3125 -1.4844 -1.4648 -2.1387 -2.9199 -2.1387 c-1.2988 0 -2.5293 0.55664 -2.5293 1.9727 c0 1.2891 1.4746 1.6895 3.1641 2.1582 c2.1777 0.60547 4.6973 1.3477 4.6973 4.1406 c0 2.8809 -2.4121 4.082 -5.0684 4.082 z M22.5773359375 14.9219 l-0.029297 0.56641 l-7.4707 0 c0.087891 1.9531 1.3477 2.8906 2.8418 2.8906 c1.0938 0 1.9824 -0.55664 2.4316 -1.543 l2.0508 0.35156 c-0.68359 1.8945 -2.3828 2.998 -4.4629 2.998 c-3.0176 0 -5.0684 -1.875 -5.0684 -5.0977 s2.0996 -5.1074 5 -5.1074 c2.7051 0 4.6973 1.582 4.707 4.9414 z M17.8798359375 11.6504 c-1.377 0 -2.3926 0.66406 -2.7051 2.1582 l5.1465 0 c-0.17578 -1.4551 -1.1426 -2.1582 -2.4414 -2.1582 z M30.808603125 10.1758 l2.2461 0 l0 9.8242 l-2.1387 0 l-0.058594 -1.2305 c-0.6543 0.89844 -1.7188 1.416 -3.0273 1.416 c-2.1875 0 -3.5352 -1.2012 -3.5352 -3.3984 l0 -6.6113 l2.2656 0 l0 6.123 c0 1.4844 0.89844 2.0508 1.9434 2.0508 c1.2402 0 2.2949 -0.70313 2.3047 -2.5293 l0 -5.6445 z M42.80864375 20.18555 c-1.5918 0 -3.0273 -0.76172 -3.0273 -2.6758 c0 -2.0996 1.709 -2.7539 3.7598 -3.125 l1.4844 -0.27344 c0.64453 -0.12695 0.9082 -0.41992 0.9082 -0.88867 c0 -1.2109 -0.94727 -1.6113 -1.9238 -1.6113 c-1.0645 0 -1.9336 0.46875 -2.0801 1.7285 l-2.0215 -0.37109 c0.3418 -2.0313 1.8066 -2.9688 4.2383 -2.9688 c1.9629 0 3.9453 0.70313 3.9453 3.4668 l0 3.8086 c0 0.92773 0.24414 1.1914 0.92773 1.1914 l0.15625 0 l0 1.5332 l-1.0645 0 c-1.1035 0 -1.7676 -0.39063 -1.9922 -1.2988 l-0.10742 0 c-0.76172 1.0742 -2.0215 1.4844 -3.2031 1.4844 z M43.33594375 18.418 c1.543 0 2.7441 -1.1426 2.7441 -2.9395 l-2.5098 0.55664 c-1.0352 0.19531 -1.6113 0.54688 -1.6113 1.2891 c0 0.77148 0.60547 1.0938 1.377 1.0938 z M54.1649921875 20.18555 c-2.1387 0 -3.7695 -0.9082 -4.1016 -2.7246 l1.9043 -0.53711 c0.26367 1.1133 1.0938 1.6504 2.1973 1.6504 c0.81055 0 1.6895 -0.29297 1.6699 -1.2402 c-0.019531 -1.1133 -1.4453 -1.25 -3.0176 -1.7773 c-1.2695 -0.41016 -2.5 -0.98633 -2.5 -2.6953 c0 -1.9727 1.6309 -2.8613 3.6621 -2.8613 c1.8555 0 3.3984 0.75195 3.7402 2.5781 l-1.7773 0.41992 c-0.26367 -1.0352 -1.0449 -1.4453 -1.9531 -1.4453 c-0.81055 0 -1.6016 0.3125 -1.6016 1.123 c0 0.9375 1.1523 1.1328 2.4023 1.4648 c1.5332 0.40039 3.2129 0.98633 3.2129 3.0664 c0 2.1777 -1.8164 2.9785 -3.8379 2.9785 z M63.15815625 20.18555 c-2.1387 0 -3.7695 -0.9082 -4.1016 -2.7246 l1.9043 -0.53711 c0.26367 1.1133 1.0938 1.6504 2.1973 1.6504 c0.81055 0 1.6895 -0.29297 1.6699 -1.2402 c-0.019531 -1.1133 -1.4453 -1.25 -3.0176 -1.7773 c-1.2695 -0.41016 -2.5 -0.98633 -2.5 -2.6953 c0 -1.9727 1.6309 -2.8613 3.6621 -2.8613 c1.8555 0 3.3984 0.75195 3.7402 2.5781 l-1.7773 0.41992 c-0.26367 -1.0352 -1.0449 -1.4453 -1.9531 -1.4453 c-0.81055 0 -1.6016 0.3125 -1.6016 1.123 c0 0.9375 1.1523 1.1328 2.4023 1.4648 c1.5332 0.40039 3.2129 0.98633 3.2129 3.0664 c0 2.1777 -1.8164 2.9785 -3.8379 2.9785 z M70.0224203125 8.301 c-0.76172 0 -1.3867 -0.625 -1.3867 -1.377 c0 -0.76172 0.625 -1.377 1.3867 -1.377 c0.74219 0 1.377 0.61523 1.377 1.377 c0 0.75195 -0.63477 1.377 -1.377 1.377 z M68.8701203125 20 l0 -9.8242 l2.2559 0 l0 9.8242 l-2.2559 0 z M77.121046875 20.18555 c-2.1387 0 -3.7695 -0.9082 -4.1016 -2.7246 l1.9043 -0.53711 c0.26367 1.1133 1.0938 1.6504 2.1973 1.6504 c0.81055 0 1.6895 -0.29297 1.6699 -1.2402 c-0.019531 -1.1133 -1.4453 -1.25 -3.0176 -1.7773 c-1.2695 -0.41016 -2.5 -0.98633 -2.5 -2.6953 c0 -1.9727 1.6309 -2.8613 3.6621 -2.8613 c1.8555 0 3.3984 0.75195 3.7402 2.5781 l-1.7773 0.41992 c-0.26367 -1.0352 -1.0449 -1.4453 -1.9531 -1.4453 c-0.81055 0 -1.6016 0.3125 -1.6016 1.123 c0 0.9375 1.1523 1.1328 2.4023 1.4648 c1.5332 0.40039 3.2129 0.98633 3.2129 3.0664 c0 2.1777 -1.8164 2.9785 -3.8379 2.9785 z M86.2314109375 20 c-1.7578 0 -2.8125 -1.0352 -2.8125 -2.8711 l0 -5.1953 l-1.9629 0 l0 -1.7578 l0.67383 0 c1.0352 0 1.5137 -0.41016 1.5137 -1.6895 l0 -1.5234 l2.0508 0 l0 3.2129 l2.1387 0 l0 1.7578 l-2.1387 0 l0 4.9609 c0 0.91797 0.49805 1.3672 1.25 1.3672 l0.88867 0 l0 1.7383 l-1.6016 0 z M98.5939375 14.9219 l-0.029297 0.56641 l-7.4707 0 c0.087891 1.9531 1.3477 2.8906 2.8418 2.8906 c1.0938 0 1.9824 -0.55664 2.4316 -1.543 l2.0508 0.35156 c-0.68359 1.8945 -2.3828 2.998 -4.4629 2.998 c-3.0176 0 -5.0684 -1.875 -5.0684 -5.0977 s2.0996 -5.1074 5 -5.1074 c2.7051 0 4.6973 1.582 4.707 4.9414 z M93.8964375 11.6504 c-1.377 0 -2.3926 0.66406 -2.7051 2.1582 l5.1465 0 c-0.17578 -1.4551 -1.1426 -2.1582 -2.4414 -2.1582 z M105.7412046875 9.99 c2.1973 0 3.5352 1.2109 3.5352 3.3984 l0 6.6113 l-2.2656 0 l0 -6.123 c0 -1.4844 -0.89844 -2.0508 -1.9336 -2.0508 c-1.2402 0 -2.3047 0.70313 -2.3145 2.5293 l0 5.6445 l-2.2461 0 l0 -9.8242 l2.2461 0 l0 1.1621 c0.6543 -0.84961 1.6992 -1.3477 2.9785 -1.3477 z M115.193325 20 c-1.7578 0 -2.8125 -1.0352 -2.8125 -2.8711 l0 -5.1953 l-1.9629 0 l0 -1.7578 l0.67383 0 c1.0352 0 1.5137 -0.41016 1.5137 -1.6895 l0 -1.5234 l2.0508 0 l0 3.2129 l2.1387 0 l0 1.7578 l-2.1387 0 l0 4.9609 c0 0.91797 0.49805 1.3672 1.25 1.3672 l0.88867 0 l0 1.7383 l-1.6016 0 z M127.5558515625 14.9219 l-0.029297 0.56641 l-7.4707 0 c0.087891 1.9531 1.3477 2.8906 2.8418 2.8906 c1.0938 0 1.9824 -0.55664 2.4316 -1.543 l2.0508 0.35156 c-0.68359 1.8945 -2.3828 2.998 -4.4629 2.998 c-3.0176 0 -5.0684 -1.875 -5.0684 -5.0977 s2.0996 -5.1074 5 -5.1074 c2.7051 0 4.6973 1.582 4.707 4.9414 z M122.8583515625 11.6504 c-1.377 0 -2.3926 0.66406 -2.7051 2.1582 l5.1465 0 c-0.17578 -1.4551 -1.1426 -2.1582 -2.4414 -2.1582 z M136.5186046875 20.18555 c-1.5918 0 -3.0273 -0.76172 -3.0273 -2.6758 c0 -2.0996 1.709 -2.7539 3.7598 -3.125 l1.4844 -0.27344 c0.64453 -0.12695 0.9082 -0.41992 0.9082 -0.88867 c0 -1.2109 -0.94727 -1.6113 -1.9238 -1.6113 c-1.0645 0 -1.9336 0.46875 -2.0801 1.7285 l-2.0215 -0.37109 c0.3418 -2.0313 1.8066 -2.9688 4.2383 -2.9688 c1.9629 0 3.9453 0.70313 3.9453 3.4668 l0 3.8086 c0 0.92773 0.24414 1.1914 0.92773 1.1914 l0.15625 0 l0 1.5332 l-1.0645 0 c-1.1035 0 -1.7676 -0.39063 -1.9922 -1.2988 l-0.10742 0 c-0.76172 1.0742 -2.0215 1.4844 -3.2031 1.4844 z M137.0459046875 18.418 c1.543 0 2.7441 -1.1426 2.7441 -2.9395 l-2.5098 0.55664 c-1.0352 0.19531 -1.6113 0.54688 -1.6113 1.2891 c0 0.77148 0.60547 1.0938 1.377 1.0938 z M151.693353125 5 l2.2461 0 l0 15 l-2.1484 0 l-0.058594 -1.5625 c-0.58594 1.1133 -1.8359 1.7871 -3.2715 1.7871 c-2.5488 0 -4.6582 -1.9629 -4.6582 -5.127 c0 -3.1445 2.1191 -5.1074 4.6582 -5.1074 c1.3965 0 2.627 0.63477 3.2324 1.6992 l0 -6.6895 z M148.958953125 18.3203 c1.6309 0 2.9004 -1.3281 2.9004 -3.2227 c0 -1.8848 -1.2793 -3.2129 -2.9004 -3.2129 s-2.9102 1.25 -2.9102 3.2129 c0 1.9727 1.2891 3.2227 2.9102 3.2227 z M167.5025234375 9.99 c1.9727 0 3.3105 1.0938 3.3105 3.125 l0 6.8848 l-2.2559 0 l0 -6.2598 c0 -1.3281 -0.80078 -1.9141 -1.7188 -1.9141 c-1.0742 0 -1.9531 0.66406 -1.9531 2.373 l0 5.8008 l-2.2852 0 l0 -6.2109 c0 -1.3574 -0.79102 -1.9629 -1.748 -1.9629 c-1.0547 0 -1.9629 0.66406 -1.9629 2.4707 l0 5.7031 l-2.2363 0 l0 -9.8242 l2.2363 0 l0 1.2109 c0.61523 -0.88867 1.582 -1.3965 2.7734 -1.3965 c1.3379 0 2.3828 0.53711 2.8906 1.5332 c0.64453 -1.0156 1.6797 -1.5332 2.9492 -1.5332 z M174.503865625 8.301 c-0.76172 0 -1.3867 -0.625 -1.3867 -1.377 c0 -0.76172 0.625 -1.377 1.3867 -1.377 c0.74219 0 1.377 0.61523 1.377 1.377 c0 0.75195 -0.63477 1.377 -1.377 1.377 z M173.351565625 20 l0 -9.8242 l2.2559 0 l0 9.8242 l-2.2559 0 z M183.5458921875 9.99 c2.1973 0 3.5352 1.2109 3.5352 3.3984 l0 6.6113 l-2.2656 0 l0 -6.123 c0 -1.4844 -0.89844 -2.0508 -1.9336 -2.0508 c-1.2402 0 -2.3047 0.70313 -2.3145 2.5293 l0 5.6445 l-2.2461 0 l0 -9.8242 l2.2461 0 l0 1.1621 c0.6543 -0.84961 1.6992 -1.3477 2.9785 -1.3477 z M190.7519125 8.301 c-0.76172 0 -1.3867 -0.625 -1.3867 -1.377 c0 -0.76172 0.625 -1.377 1.3867 -1.377 c0.74219 0 1.377 0.61523 1.377 1.377 c0 0.75195 -0.63477 1.377 -1.377 1.377 z M189.5996125 20 l0 -9.8242 l2.2559 0 l0 9.8242 l-2.2559 0 z M197.8505390625 20.18555 c-2.1387 0 -3.7695 -0.9082 -4.1016 -2.7246 l1.9043 -0.53711 c0.26367 1.1133 1.0938 1.6504 2.1973 1.6504 c0.81055 0 1.6895 -0.29297 1.6699 -1.2402 c-0.019531 -1.1133 -1.4453 -1.25 -3.0176 -1.7773 c-1.2695 -0.41016 -2.5 -0.98633 -2.5 -2.6953 c0 -1.9727 1.6309 -2.8613 3.6621 -2.8613 c1.8555 0 3.3984 0.75195 3.7402 2.5781 l-1.7773 0.41992 c-0.26367 -1.0352 -1.0449 -1.4453 -1.9531 -1.4453 c-0.81055 0 -1.6016 0.3125 -1.6016 1.123 c0 0.9375 1.1523 1.1328 2.4023 1.4648 c1.5332 0.40039 3.2129 0.98633 3.2129 3.0664 c0 2.1777 -1.8164 2.9785 -3.8379 2.9785 z M206.960903125 20 c-1.7578 0 -2.8125 -1.0352 -2.8125 -2.8711 l0 -5.1953 l-1.9629 0 l0 -1.7578 l0.67383 0 c1.0352 0 1.5137 -0.41016 1.5137 -1.6895 l0 -1.5234 l2.0508 0 l0 3.2129 l2.1387 0 l0 1.7578 l-2.1387 0 l0 4.9609 c0 0.91797 0.49805 1.3672 1.25 1.3672 l0.88867 0 l0 1.7383 l-1.6016 0 z M212.5752296875 11.8262 c0.47852 -0.97656 1.7383 -1.748 3.1641 -1.7578 l0 2.0508 c-2.002 0 -3.0762 0.73242 -3.0762 2.8711 l0 5.0098 l-2.2559 0 l0 -9.8242 l2.168 0 l0 1.6504 z M219.400440625 20.18555 c-1.5918 0 -3.0273 -0.76172 -3.0273 -2.6758 c0 -2.0996 1.709 -2.7539 3.7598 -3.125 l1.4844 -0.27344 c0.64453 -0.12695 0.9082 -0.41992 0.9082 -0.88867 c0 -1.2109 -0.94727 -1.6113 -1.9238 -1.6113 c-1.0645 0 -1.9336 0.46875 -2.0801 1.7285 l-2.0215 -0.37109 c0.3418 -2.0313 1.8066 -2.9688 4.2383 -2.9688 c1.9629 0 3.9453 0.70313 3.9453 3.4668 l0 3.8086 c0 0.92773 0.24414 1.1914 0.92773 1.1914 l0.15625 0 l0 1.5332 l-1.0645 0 c-1.1035 0 -1.7676 -0.39063 -1.9922 -1.2988 l-0.10742 0 c-0.76172 1.0742 -2.0215 1.4844 -3.2031 1.4844 z M219.927740625 18.418 c1.543 0 2.7441 -1.1426 2.7441 -2.9395 l-2.5098 0.55664 c-1.0352 0.19531 -1.6113 0.54688 -1.6113 1.2891 c0 0.77148 0.60547 1.0938 1.377 1.0938 z M230.8739890625 20 c-1.7578 0 -2.8125 -1.0352 -2.8125 -2.8711 l0 -5.1953 l-1.9629 0 l0 -1.7578 l0.67383 0 c1.0352 0 1.5137 -0.41016 1.5137 -1.6895 l0 -1.5234 l2.0508 0 l0 3.2129 l2.1387 0 l0 1.7578 l-2.1387 0 l0 4.9609 c0 0.91797 0.49805 1.3672 1.25 1.3672 l0.88867 0 l0 1.7383 l-1.6016 0 z M235.472615625 8.301 c-0.76172 0 -1.3867 -0.625 -1.3867 -1.377 c0 -0.76172 0.625 -1.377 1.3867 -1.377 c0.74219 0 1.377 0.61523 1.377 1.377 c0 0.75195 -0.63477 1.377 -1.377 1.377 z M234.320315625 20 l0 -9.8242 l2.2559 0 l0 9.8242 l-2.2559 0 z M245.5498421875 10.1758 l2.3926 0 l-4.0918 9.8242 l-1.9434 0 l-4.0625 -9.8242 l2.3828 0 l2.6465 7.2461 z M253.566440625 20.18555 c-2.9688 0 -5.166 -1.9238 -5.166 -5.1074 c0 -3.1543 2.1777 -5.0879 5.166 -5.0879 c2.998 0 5.1758 1.9336 5.1758 5.0879 c0 3.1836 -2.1875 5.1074 -5.1758 5.1074 z M253.546840625 18.3691 c1.709 0 2.959 -1.2988 2.959 -3.291 c0 -1.9824 -1.25 -3.2813 -2.959 -3.2813 c-1.6797 0 -2.9102 1.2988 -2.9102 3.2813 c0 1.9922 1.2305 3.291 2.9102 3.291 z M271.630896875 10.1758 l2.3926 0 l-4.0918 9.8242 l-1.9434 0 l-4.0625 -9.8242 l2.3828 0 l2.6465 7.2461 z M276.4442953125 8.301 c-0.76172 0 -1.3867 -0.625 -1.3867 -1.377 c0 -0.76172 0.625 -1.377 1.3867 -1.377 c0.74219 0 1.377 0.61523 1.377 1.377 c0 0.75195 -0.63477 1.377 -1.377 1.377 z M275.2919953125 20 l0 -9.8242 l2.2559 0 l0 9.8242 l-2.2559 0 z M282.429721875 11.8262 c0.47852 -0.97656 1.7383 -1.748 3.1641 -1.7578 l0 2.0508 c-2.002 0 -3.0762 0.73242 -3.0762 2.8711 l0 5.0098 l-2.2559 0 l0 -9.8242 l2.168 0 l0 1.6504 z M290.3388328125 20 c-1.7578 0 -2.8125 -1.0352 -2.8125 -2.8711 l0 -5.1953 l-1.9629 0 l0 -1.7578 l0.67383 0 c1.0352 0 1.5137 -0.41016 1.5137 -1.6895 l0 -1.5234 l2.0508 0 l0 3.2129 l2.1387 0 l0 1.7578 l-2.1387 0 l0 4.9609 c0 0.91797 0.49805 1.3672 1.25 1.3672 l0.88867 0 l0 1.7383 l-1.6016 0 z M300.093759375 10.1758 l2.2461 0 l0 9.8242 l-2.1387 0 l-0.058594 -1.2305 c-0.6543 0.89844 -1.7188 1.416 -3.0273 1.416 c-2.1875 0 -3.5352 -1.2012 -3.5352 -3.3984 l0 -6.6113 l2.2656 0 l0 6.123 c0 1.4844 0.89844 2.0508 1.9434 2.0508 c1.2402 0 2.2949 -0.70313 2.3047 -2.5293 l0 -5.6445 z M307.3682140625 20.18555 c-1.5918 0 -3.0273 -0.76172 -3.0273 -2.6758 c0 -2.0996 1.709 -2.7539 3.7598 -3.125 l1.4844 -0.27344 c0.64453 -0.12695 0.9082 -0.41992 0.9082 -0.88867 c0 -1.2109 -0.94727 -1.6113 -1.9238 -1.6113 c-1.0645 0 -1.9336 0.46875 -2.0801 1.7285 l-2.0215 -0.37109 c0.3418 -2.0313 1.8066 -2.9688 4.2383 -2.9688 c1.9629 0 3.9453 0.70313 3.9453 3.4668 l0 3.8086 c0 0.92773 0.24414 1.1914 0.92773 1.1914 l0.15625 0 l0 1.5332 l-1.0645 0 c-1.1035 0 -1.7676 -0.39063 -1.9922 -1.2988 l-0.10742 0 c-0.76172 1.0742 -2.0215 1.4844 -3.2031 1.4844 z M307.8955140625 18.418 c1.543 0 2.7441 -1.1426 2.7441 -2.9395 l-2.5098 0.55664 c-1.0352 0.19531 -1.6113 0.54688 -1.6113 1.2891 c0 0.77148 0.60547 1.0938 1.377 1.0938 z M315.4433625 20 l0 -15 l2.2656 0 l0 15 l-2.2656 0 z"></path></g></svg>